<?xml version="1.0" encoding="UTF-8" standalone="no"?><!DOCTYPE svg PUBLIC "-//W3C//DTD SVG 1.1//EN" "http://www.w3.org/Graphics/SVG/1.1/DTD/svg11.dtd"><!-- Generated by graphviz version 2.40.1 (20161225.0304)
 --><!-- Title: DSA Pages: 1 --><svg xmlns="http://www.w3.org/2000/svg" xmlns:xlink="http://www.w3.org/1999/xlink" width="1259pt" height="317pt" viewBox="0.00 0.00 1259.36 317.00">
<g id="graph0" class="graph" transform="scale(1 1) rotate(0) translate(4 313)">
<title>DSA</title>
<polygon fill="#ffffff" stroke="transparent" points="-4,4 -4,-313 1255.3558,-313 1255.3558,4 -4,4"/>
<g id="clust1" class="cluster">
<title>cluster_sender</title>
<polygon fill="#d3d3d3" stroke="#d3d3d3" points="8,-8 8,-301 550.7112,-301 550.7112,-8 8,-8"/>
<text text-anchor="middle" x="279.3556" y="-284.4" font-family="Times,serif" font-size="14.00" fill="#000000">Sender</text>
</g>
<g id="clust2" class="cluster">
<title>cluster_middle</title>
</g>
<g id="clust3" class="cluster">
<title>cluster_receiver</title>
<polygon fill="#d3d3d3" stroke="#d3d3d3" points="758.6082,-53 758.6082,-256 1243.3558,-256 1243.3558,-53 758.6082,-53"/>
<text text-anchor="middle" x="1000.982" y="-239.4" font-family="Times,serif" font-size="14.00" fill="#000000">Receiver</text>
</g>
<!-- keygen -->
<g id="node1" class="node">
<title>keygen</title>
<polygon fill="#e0e0e0" stroke="#ffffff" points="121.0201,-178 15.9933,-178 15.9933,-106 121.0201,-106 121.0201,-178"/>
<text text-anchor="middle" x="68.5067" y="-137.8" font-family="Times,serif" font-size="14.00" fill="#000000">Key Generation</text>
</g>
<!-- pubkey -->
<g id="node2" class="node">
<title>pubkey</title>
<polygon fill="#e0e0e0" stroke="#ffffff" points="276.3514,-88 198.1502,-88 198.1502,-16 276.3514,-16 276.3514,-88"/>
<text text-anchor="middle" x="237.2508" y="-47.8" font-family="Times,serif" font-size="14.00" fill="#000000">Public Key</text>
</g>
<!-- keygen&#45;&gt;pubkey -->
<g id="edge1" class="edge">
<title>keygen-&gt;pubkey</title>
<path fill="none" stroke="#000000" d="M121.4354,-113.7704C142.9894,-102.2745 167.7381,-89.0747 188.8099,-77.8361"/>
<polygon fill="#000000" stroke="#000000" points="190.7244,-80.7817 197.9008,-72.9874 187.4302,-74.6053 190.7244,-80.7817"/>
</g>
<!-- privkey -->
<g id="node3" class="node">
<title>privkey</title>
<polygon fill="#e0e0e0" stroke="#ffffff" points="278.727,-268 195.7746,-268 195.7746,-196 278.727,-196 278.727,-268"/>
<text text-anchor="middle" x="237.2508" y="-227.8" font-family="Times,serif" font-size="14.00" fill="#000000">Private Key</text>
</g>
<!-- keygen&#45;&gt;privkey -->
<g id="edge2" class="edge">
<title>keygen-&gt;privkey</title>
<path fill="none" stroke="#000000" d="M121.4354,-170.2296C142.3158,-181.3662 166.1944,-194.1019 186.8238,-205.1047"/>
<polygon fill="#000000" stroke="#000000" points="185.2779,-208.2468 195.7485,-209.8646 188.5721,-202.0704 185.2779,-208.2468"/>
</g>
<!-- verification_pubkey -->
<g id="node7" class="node">
<title>verification_pubkey</title>
<polygon fill="#e0e0e0" stroke="#000000" points="720.0871,-88 641.8859,-88 641.8859,-16 720.0871,-16 720.0871,-88"/>
<text text-anchor="middle" x="680.9865" y="-47.8" font-family="Times,serif" font-size="14.00" fill="#000000">Public Key</text>
</g>
<!-- pubkey&#45;&gt;verification_pubkey -->
<!-- pubkey&#45;&gt;verification_pubkey -->
<g id="edge13" class="edge">
<title>pubkey-&gt;verification_pubkey</title>
<path fill="none" stroke="#000000" d="M276.6294,-56.047C357.6288,-59.515 542.7461,-59.6459 631.6063,-56.4397"/>
<polygon fill="#000000" stroke="#000000" points="631.8414,-59.9333 641.6962,-56.0432 631.5664,-52.9387 631.8414,-59.9333"/>
</g>
<!-- signing -->
<g id="node4" class="node">
<title>signing</title>
<polygon fill="#e0e0e0" stroke="#ffffff" points="542.9085,-268 421.1205,-268 421.1205,-196 542.9085,-196 542.9085,-268"/>
<text text-anchor="middle" x="482.0145" y="-227.8" font-family="Times,serif" font-size="14.00" fill="#000000">Signing Algorithm</text>
</g>
<!-- privkey&#45;&gt;signing -->
<g id="edge3" class="edge">
<title>privkey-&gt;signing</title>
<path fill="none" stroke="#000000" d="M278.4948,-232C314.6942,-232 368.1311,-232 411.1663,-232"/>
<polygon fill="#000000" stroke="#000000" points="411.3017,-235.5001 421.3017,-232 411.3017,-228.5001 411.3017,-235.5001"/>
</g>
<!-- signature -->
<g id="node8" class="node">
<title>signature</title>
<polygon fill="#e0e0e0" stroke="#000000" points="716.9865,-268 644.9865,-268 644.9865,-196 716.9865,-196 716.9865,-268"/>
<text text-anchor="middle" x="680.9865" y="-227.8" font-family="Times,serif" font-size="14.00" fill="#000000">signature</text>
</g>
<!-- signing&#45;&gt;signature -->
<g id="edge6" class="edge">
<title>signing-&gt;signature</title>
<path fill="none" stroke="#000000" d="M542.7938,-232C572.3847,-232 607.3883,-232 634.7625,-232"/>
<polygon fill="#000000" stroke="#000000" points="634.8533,-235.5001 644.8532,-232 634.8532,-228.5001 634.8533,-235.5001"/>
<text text-anchor="middle" x="587.538" y="-236.2" font-family="Times,serif" font-size="14.00" fill="#000000">Signature</text>
</g>
<!-- message -->
<g id="node5" class="node">
<title>message</title>
<polygon fill="#e0e0e0" stroke="#ffffff" points="273.2508,-178 201.2508,-178 201.2508,-106 273.2508,-106 273.2508,-178"/>
<text text-anchor="middle" x="237.2508" y="-137.8" font-family="Times,serif" font-size="14.00" fill="#000000">Message</text>
</g>
<!-- message&#45;&gt;signing -->
<g id="edge4" class="edge">
<title>message-&gt;signing</title>
<path fill="none" stroke="#000000" d="M273.6177,-156.5469C291.8373,-163.7494 314.2699,-172.4885 334.4882,-180 359.5461,-189.3095 387.1452,-199.1478 411.6266,-207.7319"/>
<polygon fill="#000000" stroke="#000000" points="410.6029,-211.0817 421.1977,-211.0799 412.9142,-204.4743 410.6029,-211.0817"/>
</g>
<!-- hmsg -->
<g id="node6" class="node">
<title>hmsg</title>
<polygon fill="#e0e0e0" stroke="#000000" points="729.7302,-178 632.2428,-178 632.2428,-106 729.7302,-106 729.7302,-178"/>
<text text-anchor="middle" x="680.9865" y="-137.8" font-family="Times,serif" font-size="14.00" fill="#000000">Message Hash</text>
</g>
<!-- message&#45;&gt;hmsg -->
<g id="edge7" class="edge">
<title>message-&gt;hmsg</title>
<path fill="none" stroke="#000000" d="M273.5636,-142C350.1744,-142 528.9343,-142 622.1205,-142"/>
<polygon fill="#000000" stroke="#000000" points="622.2297,-145.5001 632.2297,-142 622.2297,-138.5001 622.2297,-145.5001"/>
<text text-anchor="middle" x="368.903" y="-163" font-family="Times,serif" font-size="14.00" fill="#000000">Hashing </text>
<text text-anchor="middle" x="368.903" y="-146.2" font-family="Times,serif" font-size="14.00" fill="#000000">   Algorithm</text>
</g>
<!-- verification -->
<g id="node9" class="node">
<title>verification</title>
<polygon fill="#e0e0e0" stroke="#ffffff" points="949.8693,-178 766.5211,-178 766.5211,-106 949.8693,-106 949.8693,-178"/>
<text text-anchor="middle" x="858.1952" y="-146.2" font-family="Times,serif" font-size="14.00" fill="#000000">Verification Algorithm</text>
<text text-anchor="middle" x="858.1952" y="-129.4" font-family="Times,serif" font-size="14.00" fill="#000000">(Checks if Signature is Valid)</text>
</g>
<!-- hmsg&#45;&gt;verification -->
<g id="edge10" class="edge">
<title>hmsg-&gt;verification</title>
<path fill="none" stroke="#000000" d="M729.8787,-142C738.1408,-142 746.9839,-142 756.0198,-142"/>
<polygon fill="#000000" stroke="#000000" points="756.2829,-145.5001 766.2829,-142 756.2828,-138.5001 756.2829,-145.5001"/>
</g>
<!-- verification_pubkey&#45;&gt;verification -->
<g id="edge8" class="edge">
<title>verification_pubkey-&gt;verification</title>
<path fill="none" stroke="#000000" d="M720.3149,-71.9739C737.3808,-80.6413 758.0228,-91.1249 778.0793,-101.3111"/>
<polygon fill="#000000" stroke="#000000" points="776.7374,-104.555 787.2383,-105.9627 779.9072,-98.3138 776.7374,-104.555"/>
</g>
<!-- signature&#45;&gt;verification -->
<g id="edge9" class="edge">
<title>signature-&gt;verification</title>
<path fill="none" stroke="#000000" d="M717.2749,-213.57C734.9067,-204.6152 756.8446,-193.4735 778.1204,-182.6681"/>
<polygon fill="#000000" stroke="#000000" points="779.8524,-185.714 787.1835,-178.0651 776.6826,-179.4728 779.8524,-185.714"/>
</g>
<!-- valid -->
<g id="node10" class="node">
<title>valid</title>
<ellipse fill="#00ff00" stroke="#ffffff" cx="1149.3972" cy="-97" rx="72.8233" ry="36"/>
<text text-anchor="middle" x="1149.3972" y="-92.8" font-family="Times,serif" font-size="14.00" fill="#000000">Sender Authenticated</text>
</g>
<!-- verification&#45;&gt;valid -->
<g id="edge11" class="edge">
<title>verification-&gt;valid</title>
<path fill="none" stroke="#000000" d="M949.9336,-127.8235C988.1825,-121.9128 1032.2043,-115.11 1069.1449,-109.4015"/>
<polygon fill="#000000" stroke="#000000" points="1070.0174,-112.8083 1079.3656,-107.8221 1068.9483,-105.8905 1070.0174,-112.8083"/>
<text text-anchor="middle" x="1006.6104" y="-126.2" font-family="Times,serif" font-size="14.00" fill="#000000">Valid</text>
</g>
<!-- invalid -->
<g id="node11" class="node">
<title>invalid</title>
<ellipse fill="#f08080" stroke="#ffffff" cx="1149.3972" cy="-187" rx="85.9172" ry="36"/>
<text text-anchor="middle" x="1149.3972" y="-182.8" font-family="Times,serif" font-size="14.00" fill="#000000">Sender Not Authenticated</text>
</g>
<!-- verification&#45;&gt;invalid -->
<g id="edge12" class="edge">
<title>verification-&gt;invalid</title>
<path fill="none" stroke="#000000" d="M949.9336,-156.1765C984.5292,-161.5226 1023.8474,-167.5986 1058.3771,-172.9345"/>
<polygon fill="#000000" stroke="#000000" points="1058.0362,-176.4233 1068.4535,-174.4916 1059.1053,-169.5054 1058.0362,-176.4233"/>
<text text-anchor="middle" x="1006.6104" y="-171.2" font-family="Times,serif" font-size="14.00" fill="#000000">Invalid</text>
</g>
</g>
</svg>